<?xml version="1.0" encoding="iso-8859-1"?>
<!-- Uploaded to: SVG Repo, www.svgrepo.com, Generator: SVG Repo Mixer Tools -->
<svg version="1.1" id="Layer_1" xmlns="http://www.w3.org/2000/svg" xmlns:xlink="http://www.w3.org/1999/xlink" 
	 viewBox="0 0 511.999 511.999" xml:space="preserve">
<rect x="199.243" y="112.464" style="fill:#CEE5F2;" width="236.891" height="277.083"/>
<rect x="199.243" y="204.472" style="fill:#F2CA7F;" width="236.891" height="93.065"/>
<rect x="199.243" y="296.475" style="fill:#8CC1EA;" width="236.891" height="93.065"/>
<circle style="fill:#898686;" cx="158.349" cy="426.905" r="76.139"/>
<circle style="fill:#BBBBBD;" cx="158.349" cy="426.905" r="35.819"/>
<path d="M158.35,340.535c-47.272,0-85.731,38.459-85.731,85.733s38.459,85.731,85.731,85.731s85.731-38.459,85.731-85.731
	S205.623,340.535,158.35,340.535z M158.35,492.825c-36.699,0-66.556-29.857-66.556-66.556s29.857-66.557,66.556-66.557
	s66.556,29.857,66.556,66.557S195.049,492.825,158.35,492.825z"/>
<path d="M158.35,380.863c-25.035,0-45.404,20.368-45.404,45.404c0,25.035,20.369,45.404,45.404,45.404s45.404-20.368,45.404-45.404
	C203.754,401.231,183.385,380.863,158.35,380.863z M158.35,452.497c-14.462,0-26.229-11.766-26.229-26.229
	s11.766-26.229,26.229-26.229s26.229,11.767,26.229,26.229S172.813,452.497,158.35,452.497z"/>
<path d="M125.078,19.175c13.06,0,23.684,10.624,23.684,23.684v275.304c0,5.295,4.291,9.588,9.588,9.588
	c5.296,0,9.588-4.293,9.588-9.588V42.859C167.938,19.226,148.711,0,125.078,0H75.861c-5.296,0-9.588,4.293-9.588,9.588
	s4.291,9.588,9.588,9.588H125.078z"/>
<path d="M401.589,416.68H266.454c-5.296,0-9.588,4.293-9.588,9.588s4.291,9.588,9.588,9.588h135.137
	c5.296,0,9.588-4.293,9.588-9.588S406.886,416.68,401.589,416.68z"/>
<path d="M436.138,102.239H199.244c-5.296,0-9.588,4.293-9.588,9.588v36.77c0,5.295,4.291,9.588,9.588,9.588s9.588-4.293,9.588-9.588
	v-27.183h217.718v72.833H208.832v-13.69c0-5.295-4.291-9.588-9.588-9.588s-9.588,4.293-9.588,9.588v146.22
	c0,5.295,4.291,9.588,9.588,9.588s9.588-4.293,9.588-9.588v-20.289h171.851c5.296,0,9.588-4.293,9.588-9.588
	c0-5.295-4.291-9.588-9.588-9.588H208.832v-73.893h217.718v73.89h-13.908c-5.296,0-9.588,4.293-9.588,9.588s4.291,9.588,9.588,9.588
	h13.908v72.833H259.98c-5.296,0-9.588,4.293-9.588,9.588s4.291,9.588,9.588,9.588h176.158c5.296,0,9.588-4.293,9.588-9.588v-277.08
	C445.726,106.53,441.433,102.239,436.138,102.239z"/>
</svg>