<?xml version="1.0" encoding="utf-8"?>
<!-- Uploaded to: SVG Repo, www.svgrepo.com, Generator: SVG Repo Mixer Tools -->
<svg width="800px" height="800px" viewBox="0 0 1024 1024" class="icon"  version="1.1" xmlns="http://www.w3.org/2000/svg"><path d="M229.804651 15.875969h563.596899c12.700775 0 22.226357 10.31938 22.226357 22.226357v22.226356c0 12.700775-10.31938 22.226357-22.226357 22.226357h-563.596899C217.897674 83.348837 207.578295 73.029457 207.578295 61.122481V38.102326C207.578295 26.195349 217.897674 15.875969 229.804651 15.875969z" fill="#C3A494" /><path d="M793.40155 99.224806h-563.596899C209.165891 99.224806 191.702326 81.76124 191.702326 61.122481V38.102326C191.702326 17.463566 209.165891 0 229.804651 0h563.596899c21.432558 0 38.102326 17.463566 38.102326 38.102326v22.226356c0.793798 21.432558-16.669767 38.896124-38.102326 38.896124zM229.804651 31.751938c-3.175194 0-6.350388 3.175194-6.350387 6.350388v22.226356c0 3.968992 3.175194 6.350388 6.350387 6.350388h563.596899c3.968992 0 6.350388-3.175194 6.350388-6.350388V38.102326c0-3.968992-3.175194-6.350388-6.350388-6.350388h-563.596899z" fill="#131313" /><path d="M781.494574 83.348837h-531.844962V214.325581c0 36.514729 7.144186 72.235659 22.226357 105.575194h488.186047c14.288372-33.339535 22.226357-69.060465 22.226356-105.575194V83.348837z" fill="#D9EFFF" /><path d="M759.268217 335.776744H271.082171c-6.350388 0-11.906977-3.968992-14.288373-9.525581-15.875969-35.72093-23.020155-73.029457-23.020155-111.925582V83.348837c0-8.731783 7.144186-15.875969 15.875969-15.875969h531.844962c8.731783 0 15.875969 7.144186 15.875969 15.875969V214.325581c0 38.896124-7.937984 76.204651-23.813954 111.925582-2.381395 6.350388-7.937984 9.525581-14.288372 9.525581z m-477.866667-31.751938h466.753489c11.113178-28.576744 16.669767-58.741085 16.669767-89.699225V99.224806h-500.093023V214.325581c0 30.95814 5.556589 61.122481 16.669767 89.699225z" fill="#131313" /><path d="M229.804651 940.651163h563.596899c12.700775 0 22.226357 10.31938 22.226357 22.226356v22.226357c0 12.700775-10.31938 22.226357-22.226357 22.226357h-563.596899c-12.700775 0-22.226357-10.31938-22.226356-22.226357v-22.226357c0-11.906977 10.31938-22.226357 22.226356-22.226356z" fill="#C3A494" /><path d="M793.40155 1024h-563.596899c-21.432558 0-38.102326-17.463566-38.102325-38.102326v-22.226356c0-21.432558 17.463566-38.102326 38.102325-38.102326h563.596899c21.432558 0 38.102326 17.463566 38.102326 38.102326v22.226356c0.793798 21.432558-16.669767 38.102326-38.102326 38.102326z m-563.596899-67.472868c-3.968992 0-6.350388 3.175194-6.350387 6.350387v22.226357c0 3.968992 3.175194 6.350388 6.350387 6.350388h563.596899c3.968992 0 6.350388-3.175194 6.350388-6.350388v-22.226357c0-3.968992-3.175194-6.350388-6.350388-6.350387h-563.596899z" fill="#131313" /><path d="M511.603101 728.706977c-33.339535 95.255814-116.688372 90.493023-262.747287 87.317829v124.626357h531.844961v-125.420155c-149.234109 3.968992-235.75814 11.113178-269.097674-86.524031z" fill="#F6EAC9" /><path d="M781.494574 957.32093h-531.844962c-8.731783 0-15.875969-7.144186-15.875969-15.875969v-124.626356c0-3.968992 1.587597-8.731783 4.762791-11.113179 3.175194-3.175194 7.144186-4.762791 11.113178-4.76279H263.144186c146.058915 3.175194 206.387597 1.587597 233.376744-76.99845 2.381395-6.350388 7.937984-10.31938 15.082171-10.31938 7.144186 0 12.700775 3.968992 15.08217 10.31938 26.989147 78.586047 87.317829 80.173643 232.582946 76.99845l20.63876-0.793799c3.968992 0 8.731783 1.587597 11.113178 4.762791 3.175194 3.175194 4.762791 7.144186 4.762791 11.113178v125.420155c1.587597 8.731783-5.556589 15.875969-14.288372 15.875969z m-515.968993-31.751938h500.093024v-92.874418h-4.762791c-121.451163 3.175194-205.593798 4.762791-248.458915-65.885272-42.865116 69.854264-127.007752 68.266667-246.871318 65.885272v92.874418z" fill="#131313" /><path d="M759.268217 704.099225c-38.102326-87.317829-119.863566-147.646512-214.325581-157.965892V458.021705H485.407752v88.111628c-94.462016 11.113178-176.223256 71.44186-214.325581 157.965892-14.288372 33.339535-22.226357 69.060465-22.226357 105.575194v6.350387c146.058915 3.175194 229.407752 8.731783 262.747287-87.317829 33.339535 96.843411 119.069767 90.493023 269.097674 86.524031v-5.556589c0-36.514729-7.144186-72.235659-21.432558-105.575194z" fill="#D9EFFF" /><path d="M327.44186 832.694574c-19.844961 0-42.071318-0.793798-64.297674-0.793799H248.855814c-8.731783 0-15.875969-7.144186-15.875969-15.875969v-6.350387c0-38.896124 7.937984-76.204651 23.020155-111.925582C294.896124 610.431008 375.863566 547.72093 469.531783 531.844961v-74.617054c0-8.731783 7.144186-15.875969 15.875969-15.875969h59.534884c8.731783 0 15.875969 7.144186 15.875969 15.875969V531.844961c93.668217 15.875969 174.635659 77.792248 212.737984 165.903876 15.875969 35.72093 23.813953 73.029457 23.813954 111.925582v5.556589c0 8.731783-7.144186 15.875969-15.875969 15.875969l-20.63876 0.793798c-120.657364 3.175194-205.593798 4.762791-248.458915-65.885271-34.927132 57.153488-97.637209 66.67907-184.955039 66.67907z m-61.916279-32.545737c144.471318 3.175194 204.8 1.587597 231.789148-76.998449 2.381395-6.350388 7.937984-10.31938 15.08217-11.113179 7.144186 0 12.700775 3.968992 15.082171 10.31938 26.989147 78.586047 87.317829 80.173643 233.376744 76.99845h4.762791c-1.587597-30.95814-7.937984-61.122481-20.63876-88.905427C708.465116 628.688372 631.466667 571.534884 542.56124 562.009302c-7.937984-0.793798-14.288372-7.937984-14.288372-15.875969v-72.235659H501.283721v72.235659c0 7.937984-6.350388 15.082171-14.288372 15.875969-88.111628 9.525581-165.903876 66.67907-201.624806 148.44031-11.906977 28.576744-19.051163 58.741085-19.844962 89.699225z" fill="#131313" /><path d="M298.071318 897.786047c-8.731783 0-15.875969-7.144186-15.875969-15.875969v-59.534884c0-129.389147 104.781395-234.170543 234.170542-234.170543 8.731783 0 15.875969 7.144186 15.875969 15.875969s-7.144186 15.875969-15.875969 15.875969c-111.925581 0-202.418605 90.493023-202.418604 202.418605v59.534884c0 8.731783-7.144186 15.875969-15.875969 15.875969z" fill="#131313" /><path d="M515.572093 480.248062c105.575194 0 201.624806-63.503876 243.696124-160.347287H271.082171c42.071318 97.637209 138.12093 160.347287 244.489922 160.347287z" fill="#F6EAC9" /><path d="M514.778295 496.124031c-111.925581 0-213.531783-66.67907-258.778295-169.872868-2.381395-4.762791-1.587597-10.31938 1.587597-15.082171s7.937984-7.144186 13.494574-7.144186h488.186046c5.556589 0 10.31938 2.381395 13.494574 7.144186 3.175194 4.762791 3.175194 10.31938 1.587597 15.082171-46.04031 103.193798-146.852713 169.872868-259.572093 169.872868 0.793798 0 0 0 0 0zM296.483721 335.776744c43.658915 78.586047 127.007752 127.80155 218.294574 128.595349 91.286822 0 174.635659-50.009302 218.294573-128.595349h-436.589147z" fill="#131313" /><path d="M528.272868 429.444961c-8.731783 0-15.875969-7.144186-15.875969-15.875969s7.144186-15.875969 15.875969-15.875969c96.843411 0 175.429457-78.586047 175.429458-175.429457V142.883721c0-8.731783 7.144186-15.875969 15.875969-15.875969s15.875969 7.144186 15.875969 15.875969v79.379845c0 114.306977-92.874419 207.181395-207.181396 207.181395z" fill="#131313" /></svg>